<svg width="46" height="46" viewBox="0 0 46 46" fill="none" xmlns="http://www.w3.org/2000/svg">
<circle cx="23" cy="23" r="22.25" stroke="#F2F2F2" stroke-width="1.5"/>
<path d="M31 31.1669L31 26.677L27.382 25.2298L25.8321 27.5547C25.6466 27.8328 25.3344 27.9999 25 27.9999C24.9064 27.9974 24.999 27.9999 24.999 27.9999L24.998 27.9999L24.9957 27.9999L24.9907 27.9999L24.9783 27.9998C24.9691 27.9996 24.9579 27.9994 24.9448 27.9989C24.9186 27.9981 24.8847 27.9966 24.8436 27.9938C24.7615 27.9884 24.6506 27.978 24.5148 27.9586C24.2435 27.9199 23.8719 27.8447 23.4338 27.6986C22.5541 27.4054 21.4151 26.8292 20.2929 25.7071C19.1707 24.5849 18.5946 23.4459 18.3013 22.5662C18.1553 22.1281 18.0801 21.7564 18.0413 21.4851C18.0219 21.3494 18.0116 21.2384 18.0061 21.1563C18.0034 21.1153 18.0019 21.0814 18.001 21.0551C18.0006 21.042 18.0003 21.0308 18.0002 21.0216L18 21.0093L18 21.0042L18 21.002L18 21.001C18 21.001 18.0061 20.8893 18 21C18 20.6212 18.214 20.2749 18.5528 20.1055L19.8922 19.4358L19.1529 15L14.833 15C14.5277 17.111 14.2268 22.8125 18.7071 27.2928C23.1874 31.7731 28.8889 31.4722 31 31.1669ZM24.5139 25.9263L25.7179 24.1204C26.2425 23.3334 27.2466 23.0216 28.1248 23.3728L31.7428 24.82C32.5021 25.1238 33 25.8592 33 26.677L33 31.2192C33 32.1277 32.3688 32.9829 31.3831 33.132C29.1405 33.4713 22.519 33.9332 17.2929 28.7071C12.0668 23.4809 12.5286 16.8595 12.8679 14.6169C13.0171 13.6311 13.8723 13 14.7808 13L19.1529 13C20.1306 13 20.9649 13.7068 21.1257 14.6712L21.865 19.107C22.0093 19.9731 21.5719 20.832 20.7866 21.2247L20.0936 21.5712C20.1204 21.6801 20.1547 21.8017 20.1987 21.9337C20.4054 22.554 20.8293 23.415 21.7071 24.2928C22.5849 25.1707 23.4459 25.5945 24.0662 25.8013C24.2338 25.8571 24.3846 25.8974 24.5139 25.9263Z" fill="white"/>
</svg>
